# xmcd
#
# Track frame offsets:
#	150
#	14079
#	28243
#	54621
#	68266
#	86378
#
# Disc length: 1497 seconds
#
# Revision: 0
# Processed by: cddbd v1.5.2PL0 Copyright (c) Steve Scherf et al.
# Submitted via: EasyCDDAExtractor 12.0.1.1
#
DISCID=4505d706
DTITLE=De Lillo's - 1000 smil
DYEAR=2000
DGENRE=Pop
TTITLE0=1000 smil (live)
TTITLE1=1000 smil
TTITLE2=Jeg vil ha en liten hund
TTITLE3=1000 smil
TTITLE4=Mobiltelefon
TTITLE5=Smak av honning
EXTD=
EXTT0=
EXTT1=
EXTT2=
EXTT3=
EXTT4=
EXTT5=
PLAYORDER=
